<?xml version="1.0" standalone="no"?>
<!DOCTYPE svg PUBLIC "-//W3C//DTD SVG 20010904//EN"
 "http://www.w3.org/TR/2001/REC-SVG-20010904/DTD/svg10.dtd">
<svg version="1.0" xmlns="http://www.w3.org/2000/svg"
 width="600.000000pt" height="600.000000pt" viewBox="0 0 600.000000 600.000000"
 preserveAspectRatio="xMidYMid meet">
<g transform="translate(0.000000,600.000000) scale(0.100000,-0.100000)"
fill="#000000" stroke="none">
<path d="M4168 4344 c-40 -17 -43 -21 -816 -972 -190 -235 -427 -526 -526
-647 -99 -121 -181 -222 -182 -224 -2 -2 -11 5 -21 17 -10 11 -142 158 -293
326 -295 329 -315 346 -394 333 -19 -3 -110 -39 -202 -79 -139 -61 -172 -80
-198 -112 -41 -51 -44 -124 -6 -178 14 -20 156 -179 315 -354 160 -175 380
-418 490 -538 110 -121 215 -231 234 -243 46 -31 122 -31 172 0 40 24 44 28
664 787 236 289 550 672 697 852 147 180 274 340 282 357 18 34 21 186 9 439
-7 155 -15 181 -73 224 -36 26 -107 32 -152 12z"/>
</g>
</svg>
